<?xml version="1.0" encoding="UTF-8"?>
<svg id="Layer_1" data-name="Layer 1" xmlns="http://www.w3.org/2000/svg" viewBox="0 0 58.43 83.32">
  <defs>
    <style>
      .cls-1 {
        fill: #ea7051;
      }

      .cls-1, .cls-2 {
        stroke-width: 0px;
      }

      .cls-2 {
        fill: #1b2f4c;
      }
    </style>
  </defs>
  <path class="cls-1" d="M34.42,28.06c.77-1.65,1.73-3.21,2.91-4.55,1.99-2.38,4.62-3.97,7.54-4.74l3.21-.98-2.25-6.76s-3.08,1.37-3.08,1.37c-6.64,2.6-11.09,8.66-12.83,15.39-.24,0-.47,0-.71,0C13.08,27.79,0,36.01,0,54.36c0,14.81,11.02,27.04,25.3,28.95l-.19-9.25c-3.44-.9-5.85-2.72-5.89-4.81,0-.19,0-.35.05-.51-.11-.13-.18-.28-.18-.43l-.59-29.13c0-.61.92-1.1,2.11-1.1h.07c1.2,0,2.2.53,2.22,1.16l.55,27.66c1.2-.06,2.59-.04,4.07,0l-.5-24.94c0-.62.95-1.11,2.14-1.11h.04c1.21.02,2.21.53,2.22,1.16l.5,24.95c1.32,0,2.53,0,3.58.05l-.56-27.64c0-.62.97-1.11,2.17-1.1,1.2,0,2.2.53,2.22,1.16l.59,29.12c0,.13-.04.24-.11.35.05.18.07.37.08.59.04,2.1-2.32,3.88-5.77,4.69l.18,8.94c13.72-2.41,24.13-14.37,24.13-28.76,0-17.28-10.36-24.84-24.01-26.3Z"/>
  <path class="cls-2" d="M27.05,25.15s1.93-7.83-1.38-14.77C22.37,3.43,15.07,0,15.07,0c0,0-1.93,7.83,1.38,14.77,3.31,6.94,10.6,10.38,10.6,10.38Z"/>
  <path class="cls-2" d="M8.95,25.62c5.4,1.25,10.61-1.32,10.61-1.32,0,0-3.55-4.6-8.95-5.86-5.4-1.25-10.61,1.32-10.61,1.32,0,0,3.55,4.6,8.95,5.86Z"/>
</svg>