<?xml version="1.0"?>
<svg width="58.42999999999999" height="83.32" xmlns="http://www.w3.org/2000/svg" xmlns:svg="http://www.w3.org/2000/svg" data-name="Layer 1">
 <defs>
  <style>.cls-1 {
        fill: #ea7051;
      }

      .cls-1, .cls-2 {
        stroke-width: 0px;
      }

      .cls-2 {
        fill: #1b2f4c;
      }</style>
 </defs>
 <g class="layer">
  <title>Layer 1</title>
  <path class="cls-1" d="m34.42,28.06c0.77,-1.65 1.73,-3.21 2.91,-4.55c1.99,-2.38 4.62,-3.97 7.54,-4.74l3.21,-0.98l-2.25,-6.76s-3.08,1.37 -3.08,1.37c-6.64,2.6 -11.09,8.66 -12.83,15.39c-0.24,0 -0.47,0 -0.71,0c-16.13,0 -29.21,8.22 -29.21,26.57c0,14.81 11.02,27.04 25.3,28.95l-0.19,-9.25c-3.44,-0.9 -5.85,-2.72 -5.89,-4.81c0,-0.19 0,-0.35 0.05,-0.51c-0.11,-0.13 -0.18,-0.28 -0.18,-0.43l-0.59,-29.13c0,-0.61 0.92,-1.1 2.11,-1.1l0.07,0c1.2,0 2.2,0.53 2.22,1.16l0.55,27.66c1.2,-0.06 2.59,-0.04 4.07,0l-0.5,-24.94c0,-0.62 0.95,-1.11 2.14,-1.11l0.04,0c1.21,0.02 2.21,0.53 2.22,1.16l0.5,24.95c1.32,0 2.53,0 3.58,0.05l-0.56,-27.64c0,-0.62 0.97,-1.11 2.17,-1.1c1.2,0 2.2,0.53 2.22,1.16l0.59,29.12c0,0.13 -0.04,0.24 -0.11,0.35c0.05,0.18 0.07,0.37 0.08,0.59c0.04,2.1 -2.32,3.88 -5.77,4.69l0.18,8.94c13.72,-2.41 24.13,-14.37 24.13,-28.76c0,-17.28 -10.36,-24.84 -24.01,-26.3z" id="svg_1"/>
  <path class="cls-2" d="m27.05,25.15s1.93,-7.83 -1.38,-14.77c-3.3,-6.95 -10.6,-10.38 -10.6,-10.38c0,0 -1.93,7.83 1.38,14.77c3.31,6.94 10.6,10.38 10.6,10.38z" id="svg_2"/>
  <path class="cls-2" d="m8.95,25.62c5.4,1.25 10.61,-1.32 10.61,-1.32c0,0 -3.55,-4.6 -8.95,-5.86c-5.4,-1.25 -10.61,1.32 -10.61,1.32c0,0 3.55,4.6 8.95,5.86z" id="svg_3"/>
  <ellipse cx="3.14" cy="40.75" fill="#ffffff" id="svg_5" rx="6.48" ry="6.48" stroke="#ffffff"/>
  <ellipse cx="5.55" cy="50.94" fill="#ffffff" id="svg_6" rx="6.48" ry="6.48" stroke="#ffffff" transform="matrix(1 0 0 1 0 0)"/>
  <ellipse cx="5.18" cy="60.38" fill="#ffffff" id="svg_7" rx="6.48" ry="6.48" stroke="#ffffff" transform="matrix(1 0 0 1 0 0)"/>
  <ellipse cx="3.14" cy="68.9" fill="#ffffff" id="svg_8" rx="6.48" ry="6.48" stroke="#ffffff"/>
 </g>
</svg>