<?xml version="1.0" encoding="UTF-8"?>
<svg id="Layer_1" data-name="Layer 1" xmlns="http://www.w3.org/2000/svg" viewBox="0 0 96.17 102.34">
  <defs>
    <style>
      .cls-1 {
        fill: #ea7051;
      }

      .cls-1, .cls-2 {
        stroke-width: 0px;
      }

      .cls-2 {
        fill: #1b2f4c;
      }
    </style>
  </defs>
  <g>
    <path class="cls-1" d="M50.9,28.06c.77-1.65,1.73-3.21,2.91-4.55,1.99-2.38,4.62-3.97,7.54-4.74l3.21-.98-2.25-6.76s-3.08,1.37-3.08,1.37c-6.64,2.6-11.09,8.66-12.83,15.39-.24,0-.47,0-.71,0-16.13,0-29.21,8.22-29.21,26.57,0,14.81,11.02,27.04,25.3,28.95l-.19-9.25c-3.44-.9-5.85-2.72-5.89-4.81,0-.19,0-.35.05-.51-.11-.13-.18-.28-.18-.43l-.59-29.13c0-.61.92-1.1,2.11-1.1h.07c1.2,0,2.2.53,2.22,1.16l.55,27.66c1.2-.06,2.59-.04,4.07,0l-.5-24.94c0-.62.95-1.11,2.14-1.11h.04c1.21.02,2.21.53,2.22,1.16l.5,24.95c1.32,0,2.53,0,3.58.05l-.56-27.64c0-.62.97-1.11,2.17-1.1,1.2,0,2.2.53,2.22,1.16l.59,29.12c0,.13-.04.24-.11.35.05.18.07.37.08.59.04,2.1-2.32,3.88-5.77,4.69l.18,8.94c13.72-2.41,24.13-14.37,24.13-28.76,0-17.28-10.36-24.84-24.01-26.3Z"/>
    <path class="cls-2" d="M43.53,25.15s1.93-7.83-1.38-14.77C38.84,3.43,31.55,0,31.55,0c0,0-1.93,7.83,1.38,14.77,3.31,6.94,10.6,10.38,10.6,10.38Z"/>
    <path class="cls-2" d="M25.43,25.62c5.4,1.25,10.61-1.32,10.61-1.32,0,0-3.55-4.6-8.95-5.86-5.4-1.25-10.61,1.32-10.61,1.32,0,0,3.55,4.6,8.95,5.86Z"/>
  </g>
  <g>
    <path class="cls-2" d="M10.41,91.58c0,.07-.07.11-.2.11-.5,0-1.26-.04-2.27-.13-1.02-.09-1.78-.13-2.28-.13-.64,0-1.01.02-1.12.07-.25.11-.37.43-.37.96,0,.63.16.99.48,1.08.13.03.34.05.61.05.46,0,1.15-.03,2.06-.08.92-.05,1.6-.08,2.06-.08.22,0,.33.59.33,1.76,0,1.02-.04,1.61-.11,1.78-.05.12-.14.18-.27.18.09,0-.12-.02-.63-.07-.71-.07-1.79-.1-3.24-.1-.47,0-.73,0-.79,0-.34.05-.51.2-.51.43,0,.95.04,2.04.12,3.27.07,1.11.1,1.61.1,1.49,0,.17-.21.27-.63.3.11,0-.18,0-.89,0-1.25,0-2.05-.04-2.41-.13-.19-.05-.29-.15-.29-.31,0-.74.02-1.85.08-3.33.05-1.48.07-2.59.07-3.33,0-.88-.04-1.98-.12-3.32-.12-2.06-.18-3.16-.19-3.32v-.12c-.02-.17.08-.25.29-.25.49,0,1.24.01,2.23.03,1,.02,1.74.03,2.24.03.53,0,1.33-.04,2.4-.12,1.07-.08,1.87-.12,2.4-.12.33,0,.52.14.56.41,0,.29.01.72.04,1.29.01.15.06.43.13.85.07.37.1.65.1.85Z"/>
    <path class="cls-2" d="M18.14,96.12c0,.26-.14.39-.43.39-.13,0-.31,0-.55-.02s-.42-.03-.54-.03c-.55,0-.93.09-1.13.26s-.3.52-.3,1.05c0,.29,0,.72.02,1.3,0,.58.02,1.02.02,1.3,0,.19.01.48.04.86.03.38.04.67.04.85,0,.16-.11.25-.33.27-.32.03-.81.04-1.47.04s-1.14-.02-1.52-.06c-.22-.03-.33-.14-.33-.33,0-.53,0-1.33.01-2.39,0-1.06,0-1.86,0-2.39,0-1.57-.14-2.85-.43-3.87-.01-.06-.02-.11-.02-.15,0-.1.05-.17.15-.2.37-.04.9-.11,1.61-.22,1.05-.21,1.6-.31,1.63-.31.12,0,.2.21.23.63s.09.63.18.63c-.09,0,.18-.17.82-.52.64-.35,1.26-.52,1.85-.52.37,0,.56.08.56.24,0,.19-.02.47-.06.82-.04.38-.06.65-.07.82,0,.19,0,.45.01.77.01.39.02.65.02.78Z"/>
    <path class="cls-2" d="M28.46,96.92c0,.67-.22,1.06-.65,1.15-.07.01-.76.09-2.07.22-.79.09-1.96.19-3.52.31.09.43.38.76.85.99.39.19.83.28,1.32.28.59,0,1.19-.16,1.79-.48.25-.16.51-.32.76-.48.14.07.37.41.7,1.02.33.61.49,1,.49,1.17,0,.05-.05.12-.15.23-.81.87-2.08,1.31-3.79,1.31-1.59,0-2.86-.46-3.84-1.39-1-.94-1.5-2.19-1.5-3.77s.45-2.79,1.34-3.77c.92-1.01,2.14-1.52,3.66-1.52,1.28,0,2.36.47,3.26,1.4.89.93,1.34,2.04,1.34,3.33ZM24.97,96.31c0-.41-.15-.78-.44-1.09-.29-.31-.64-.47-1.05-.47s-.77.18-1.04.53c-.25.33-.38.71-.38,1.15,0,.18.09.27.28.27.49,0,1.26-.08,2.3-.23.22-.03.33-.09.33-.16Z"/>
    <path class="cls-2" d="M35.41,94.26c0,.07-.05.16-.15.27-.19-.05-.37-.07-.56-.07-.39,0-.72.09-.99.26-.32.2-.48.48-.48.85,0,.23.17.53.51.89.51.54.83.9.95,1.09.34.51.51,1.05.51,1.63,0,.34-.07.7-.2,1.08-.15.42-.35.73-.58.92-.49.43-1.07.79-1.73,1.08-.71.31-1.37.46-1.97.46-.13,0-.43-.36-.89-1.08s-.69-1.16-.69-1.32c0-.06.04-.1.11-.11.47-.09.94-.17,1.41-.26.59-.19.88-.49.88-.92,0-.29-.17-.63-.51-1.02-.61-.67-.92-1.03-.95-1.07-.34-.48-.51-.99-.51-1.52,0-1,.51-1.85,1.52-2.55.91-.62,1.88-.93,2.91-.93.11,0,.37.36.79,1.07.42.72.63,1.13.63,1.25Z"/>
    <path class="cls-2" d="M46.82,95.1l-.02,6.89c0,.23-.09.36-.28.39-.21.03-.7.04-1.46.04s-1.24-.03-1.53-.08c-.22-.04-.33-.18-.33-.43,0-.57.01-1.44.03-2.59s.03-2.01.03-2.59c0-.78-.4-1.17-1.19-1.17-.27,0-.58.11-.94.32-.39.23-.59.48-.59.73v2.47c0,.32,0,.8.02,1.44.01.64.02,1.12.02,1.44,0,.25-.1.38-.31.41-.21.03-.79.04-1.74.04-.55,0-.94-.03-1.18-.08-.24-.05-.36-.17-.36-.35,0-.53,0-1.32.01-2.37,0-1.06,0-1.85,0-2.37,0-2.18-.02-3.98-.07-5.4-.02-.5-.04-1-.05-1.5-.03-.58-.09-1.08-.18-1.49-.02-.09-.03-.15-.03-.19,0-.1.05-.17.15-.2.21-.06.51-.1.91-.11.53-.02.84-.04.93-.05l1.81-.21c.11,0,.16.07.16.21,0,.21-.01.5-.04.87-.03.43-.04.72-.04.87-.04,1.51-.06,2.69-.06,3.57,0,.13.03.2.1.2.01,0,.18-.12.51-.35.39-.27.76-.49,1.11-.65.53-.23,1.04-.35,1.53-.35.85,0,1.56.22,2.14.67.62.48.93,1.14.93,1.97Z"/>
    <path class="cls-2" d="M60.48,93.67c0,1.61-.42,2.92-1.27,3.92-.91,1.06-2.15,1.59-3.75,1.59-.27,0-.67-.02-1.2-.04-.54-.03-.94-.04-1.2-.04-.29,0-.43.12-.43.37,0,.31.03.76.09,1.37.06.61.09,1.06.09,1.36,0,.15-.07.23-.21.23-.41,0-1.02-.01-1.83-.03-.81-.02-1.42-.04-1.83-.04-.19,0-.29-.1-.29-.29,0-.74.01-1.85.03-3.33.02-1.48.04-2.59.04-3.33,0-2.09-.09-4.29-.27-6.59v-.14c-.02-.13.08-.2.29-.23.52-.07,1.67-.1,3.44-.1,1.05,0,2.05.01,3.01.04,1.58.05,2.85.54,3.82,1.49.99.97,1.48,2.24,1.48,3.82ZM56.5,93.83c0-1.55-.76-2.33-2.27-2.33-1.07,0-1.62.06-1.68.18-.05.09-.07.86-.07,2.31,0,.21,0,.51.02.91.02.4.03.71.03.91,0,.13.6.2,1.8.2,1.44,0,2.17-.73,2.17-2.19Z"/>
    <path class="cls-2" d="M65.42,96.33c0,1.82,0,3.21.02,4.19,0,.15,0,.42.03.79.02.34.03.6.03.79,0,.14-.08.22-.25.25-.3.05-.84.08-1.62.08s-1.31-.03-1.53-.08c-.15-.03-.23-.12-.25-.27v-.43c0-.59,0-1.48.02-2.66.01-1.18.02-2.07.02-2.65,0-2.8,0-4.07.01-3.83-.02-1.47-.1-2.74-.25-3.81-.01-.07-.02-.13-.02-.17,0-.15.09-.22.26-.22h3.57c.17,0,.24.07.23.21v.18c-.18,2.88-.27,5.42-.27,7.63Z"/>
    <path class="cls-2" d="M77.29,97.35c0,.51.03,1.28.09,2.29.06,1.01.09,1.77.09,2.28,0,.27-.12.41-.35.43-.83.06-1.77.09-2.84.09-.13,0-.21-.19-.25-.57-.04-.38-.1-.58-.15-.58-.05.03-.12.08-.21.17-.75.75-1.55,1.13-2.4,1.13-1.3,0-2.37-.51-3.23-1.54-.81-.96-1.21-2.11-1.21-3.44,0-1.54.42-2.78,1.25-3.72.87-.97,2.05-1.46,3.56-1.46,1.05,0,1.87.37,2.48,1.1.03.03.05.05.07.05.06,0,.13-.16.2-.48.08-.32.17-.48.27-.48.25,0,.72.07,1.41.21.66.13,1.13.25,1.42.34.1.04.15.09.15.16,0,.03,0,.1-.03.21-.21,1.21-.32,2.48-.32,3.83ZM74.07,97.41c0-.57-.18-1.03-.53-1.4-.36-.37-.82-.55-1.39-.55s-1.04.18-1.39.55c-.35.37-.53.84-.53,1.41,0,.54.19,1,.56,1.39s.83.58,1.36.58c.57,0,1.03-.18,1.39-.55.36-.37.54-.84.54-1.41Z"/>
    <path class="cls-2" d="M85.96,99.41c0,.2-.02.5-.07.91s-.07.7-.07.89-.02.31-.06.36c-.04.05-.15.13-.33.23-.86.47-1.81.71-2.86.71-1.92,0-2.89-.74-2.89-2.21,0-.44.02-1.1.05-1.98.03-.88.05-1.54.05-1.98,0-.29-.17-.44-.51-.44h-.13c-.06,0-.1.01-.13.01-.25,0-.38-.09-.38-.27,0-.11,0-.27.02-.49s.03-.38.03-.49c0-.14,0-.35-.03-.64s-.02-.5-.02-.64c0-.13.21-.21.64-.22.24,0,.37-.07.39-.2.04-.25.05-.65.04-1.2-.03-.86-.04-1.27-.04-1.23,0-.77.07-1.16.22-1.16.18,0,.44.04.77.12.38.09.64.14.79.15.34.05.85.11,1.54.19.17.01.25.07.25.17,0,.27-.02.67-.06,1.21-.04.54-.06.95-.06,1.22,0,.33.1.49.29.49.23,0,.59-.01,1.06-.03.47-.02.83-.03,1.07-.03.15,0,.22.05.22.15,0,.15-.02.38-.05.69-.03.31-.05.54-.05.69s0,.39.01.7c0,.31,0,.54,0,.7,0,.14-.1.21-.29.21-.13,0-.36,0-.67-.02-.31,0-.54-.01-.67-.01h-.75c-.1,0-.15.15-.15.44v.71c0,.32,0,.56,0,.71,0,.56.06.95.19,1.16.18.29.53.43,1.06.43.17,0,.4-.04.71-.11.31-.08.53-.12.65-.12.14,0,.21.07.21.22Z"/>
    <path class="cls-2" d="M96.16,96.92c0,.67-.22,1.06-.65,1.15-.07.01-.76.09-2.07.22-.79.09-1.96.19-3.52.31.09.43.38.76.85.99.39.19.83.28,1.32.28.59,0,1.19-.16,1.79-.48.25-.16.51-.32.76-.48.14.07.37.41.7,1.02.33.61.49,1,.49,1.17,0,.05-.05.12-.15.23-.81.87-2.08,1.31-3.79,1.31-1.59,0-2.86-.46-3.84-1.39-1-.94-1.5-2.19-1.5-3.77s.45-2.79,1.34-3.77c.92-1.01,2.14-1.52,3.66-1.52,1.28,0,2.36.47,3.26,1.4.89.93,1.34,2.04,1.34,3.33ZM92.66,96.31c0-.41-.15-.78-.44-1.09-.29-.31-.64-.47-1.05-.47s-.77.18-1.04.53c-.25.33-.38.71-.38,1.15,0,.18.09.27.28.27.49,0,1.26-.08,2.3-.23.22-.03.33-.09.33-.16Z"/>
  </g>
</svg>